# Created by MKDS Course Modifier
mtllib Blue Shell.mtl
g polygon0
usemtl mat_shell
v 4.538574 -1.391846 -3.818359
v 6.057129 -1.982422 0
v 3.814697 -1.969727 -3.214355
v 5.133057 -2.491455 0
v 4.263184 -4.119873 -1.502686
v 4.263184 -4.119873 1.502686
v 1.900146 -5.758789 0
v 0.3833008 -5.700439 1.717041
v 0.3833008 -5.998047 0
v -1.133545 -5.758789 0
v 0.3833008 -5.700439 -1.717041
v -3.496582 -4.119873 -1.502686
v 0.3833008 -4.119873 -3.732178
v -3.048096 -1.969727 -3.214355
v 0.3833008 -1.411621 -4.589111
v 0.3833008 -0.777832 -5.400146
v 3.814697 -1.969727 -3.214355
v 4.538574 -1.391846 -3.818359
vn 0.6855469 -0.0703125 -0.7246094
vn 0.8515625 -0.5234375 0
vn 0.4375 -0.65625 -0.6132813
vn 0.8515625 -0.5234375 0
vn 0.6503906 -0.6542969 -0.3867188
vn 0.6503906 -0.6542969 0.3867188
vn 0.3398438 -0.9414063 0
vn 0 -0.9179688 0.3945313
vn 0 -1 0
vn -0.3398438 -0.9414063 0
vn 0 -0.9179688 -0.3945313
vn -0.6308594 -0.6699219 -0.390625
vn 0 -0.5761719 -0.8164063
vn -0.4433594 -0.6445313 -0.6230469
vn 0 -0.5761719 -0.8164063
vn 0 -0.4140625 -0.9101563
vn 0.4375 -0.65625 -0.6132813
vn 0.6855469 -0.0703125 -0.7246094
vt 0.3168945 -0.8496094
vt 0.5 -0.8496094
vt 0.3432617 -0.8125
vt 0.5 -0.8125
vt 0.4150391 -0.7578125
vt 0.5849609 -0.7578125
vt 0.5 -0.5478516
vt 0.5209961 -0.5009766
vt 0.5 -0.5009766
vt 0.5 -0.453125
vt 0.4790039 -0.5009766
vt 0.4165039 -0.2480469
vt 0.390625 -0.5
vt 0.3442383 -0.1875
vt 0.34375 -0.5
vt 0.3217773 -0.5
vt 0.3432617 -0.8125
vt 0.3168945 -0.8496094
f 1/1/1 2/2/2 3/3/3
f 2/2/2 4/4/4 3/3/3
f 3/3/3 4/4/4 5/5/5
f 4/4/4 6/6/6 5/5/5
f 5/5/5 6/6/6 7/7/7
f 6/6/6 8/8/8 7/7/7
f 7/7/7 8/8/8 9/9/9
f 8/8/8 10/10/10 9/9/9
f 9/9/9 10/10/10 11/11/11
f 10/10/10 12/12/12 11/11/11
f 11/11/11 12/12/12 13/13/13
f 12/12/12 14/14/14 13/13/13
f 13/13/13 14/14/14 15/15/15
f 14/14/14 16/16/16 15/15/15
f 15/15/15 16/16/16 17/17/17
f 16/16/16 18/18/18 17/17/17
v -3.048096 -1.969727 -3.214355
v -3.496582 -4.119873 -1.502686
v -4.526123 -2.531494 0
v -3.496582 -4.119873 1.502686
v -3.048096 -1.969727 3.214355
v 0.3833008 -4.119873 3.732178
v 0.3833008 -1.411621 4.589111
v 3.814697 -1.969727 3.214355
v 0.3833008 -0.777832 5.400146
vn -0.4433594 -0.6445313 -0.6230469
vn -0.6308594 -0.6699219 -0.390625
vn -0.8417969 -0.5410156 0
vn -0.6308594 -0.6699219 0.390625
vn -0.4433594 -0.6445313 0.6230469
vn 0 -0.5664063 0.8242188
vn 0 -0.5664063 0.8242188
vn 0.4375 -0.65625 0.6132813
vn 0 -0.4140625 0.9101563
vt 0.3442383 -0.1875
vt 0.4165039 -0.2480469
vt 0.5 -0.1875
vt 0.5834961 -0.2480469
vt 0.65625 -0.1875
vt 0.609375 -0.5009766
vt 0.6567383 -0.5
vt 0.6567383 -0.8125
vt 0.6782227 -0.5
f 19/19/19 20/20/20 21/21/21
f 20/20/20 22/22/22 21/21/21
f 21/21/21 22/22/22 23/23/23
f 22/22/22 24/24/24 23/23/23
f 23/23/23 24/24/24 25/25/25
f 24/24/24 26/26/26 25/25/25
f 25/25/25 26/26/26 27/27/27
v -4.339844 -1.011963 0
v -2.741699 -0.230957 2.899414
v -3.823486 1.91748 0
v -1.983398 2.634766 2.620117
v -2.577393 3.093994 0
v 0.3833008 4.096924 0
v -1.983398 2.634766 -2.620117
v 0.3833008 2.898193 -2.600098
v 0.3833008 0.06079102 -4.287109
vn -0.984375 0.1738281 0
vn -0.7382813 0.2148438 0.640625
vn -0.9042969 0.4277344 0
vn -0.4453125 0.6621094 0.6015625
vn -0.5136719 0.8574219 0
vn 0 0.9980469 0
vn -0.4453125 0.6621094 -0.6015625
vn 0.08789063 0.7988281 -0.5957031
vn 0.01757813 0.3847656 -0.921875
vt 1.22998 -0.4980469
vt 1.22998 -0.3662109
vt 1.155762 -0.4648438
vt 1.157227 -0.3085938
vt 1.090332 -0.3554688
vt 1.096191 -0.1455078
vt 1.157227 -0.3085938
vt 1.145508 -0.1455078
vt 1.22998 -0.1474609
f 28/28/28 29/29/29 30/30/30
f 29/29/29 31/31/31 30/30/30
f 30/30/30 31/31/31 32/32/32
f 31/31/31 33/33/33 32/32/32
f 32/32/32 33/33/33 34/34/34
f 33/33/33 35/35/35 34/34/34
f 34/34/34 35/35/35 36/36/36
v 0.3833008 0.06079102 4.287109
v 3.312988 -0.230957 2.899414
v 2.447754 2.563721 2.579834
v 3.854492 1.503906 0
v 2.917236 3.177979 0
v 2.447754 2.563721 -2.579834
v 0.3833008 2.898193 -2.600098
v 0.3833008 0.06079102 -4.287109
vn 0.01757813 0.3847656 0.921875
vn 0.6699219 0.4121094 0.6171875
vn 0.5566406 0.5742188 0.6015625
vn 0.7617188 0.6484375 0
vn 0.4980469 0.8671875 0
vn 0.5566406 0.5742188 -0.6015625
vn 0.08789063 0.7988281 -0.5957031
vn 0.01757813 0.3847656 -0.921875
vt 0.9902344 -0.01074219
vt 0.9902344 0.1875
vt 0.8955078 0.1318359
vt 0.9135742 0.2412109
vt 0.8491211 0.1689453
vt 0.8955078 0.1318359
vt 0.8847656 -0.01074219
vt 0.9902344 -0.01074219
f 37/37/37 38/38/38 39/39/39
f 38/38/38 40/40/40 39/39/39
f 39/39/39 40/40/40 41/41/41
f 40/40/40 42/42/42 41/41/41
f 41/41/41 42/42/42 43/43/43
f 42/42/42 44/44/44 43/43/43
v 5.133057 -2.491455 0
v 3.814697 -1.969727 3.214355
v 4.263184 -4.119873 1.502686
v 0.3833008 -4.119873 3.732178
v 0.3833008 -5.700439 1.717041
v -3.496582 -4.119873 1.502686
v -1.133545 -5.758789 0
v -3.496582 -4.119873 -1.502686
vn 0.8515625 -0.5234375 0
vn 0.4375 -0.65625 0.6132813
vn 0.6503906 -0.6542969 0.3867188
vn 0 -0.5664063 0.8242188
vn 0 -0.9179688 0.3945313
vn -0.6308594 -0.6699219 0.390625
vn -0.3398438 -0.9414063 0
vn -0.6308594 -0.6699219 -0.390625
vt 0.5 -0.8125
vt 0.6567383 -0.8125
vt 0.5849609 -0.7578125
vt 0.609375 -0.5009766
vt 0.5209961 -0.5009766
vt 0.5834961 -0.2480469
vt 0.5 -0.453125
vt 0.4165039 -0.2480469
f 45/45/45 46/46/46 47/47/47
f 46/46/46 48/48/48 47/47/47
f 47/47/47 48/48/48 49/49/49
f 48/48/48 50/50/50 49/49/49
f 49/49/49 50/50/50 51/51/51
f 50/50/50 52/52/52 51/51/51
v 0.3833008 0.06079102 -4.287109
v 2.447754 2.563721 -2.579834
v 3.312988 -0.230957 -2.899414
v 3.854492 1.503906 0
v 4.724854 1.227051 0
v 3.312988 -0.230957 2.899414
v 5.108154 -1.078857 0
vn 0.01757813 0.3847656 -0.921875
vn 0.5566406 0.5742188 -0.6015625
vn 0.6699219 0.4121094 -0.6171875
vn 0.7617188 0.6484375 0
vn 0.7617188 0.6484375 0
vn 0.6699219 0.4121094 0.6171875
vn 0.9863281 0.1640625 0
vt 0.9902344 -0.01074219
vt 0.8955078 0.1318359
vt 0.9902344 0.1875
vt 0.9135742 0.2412109
vt 0.9550781 0.2910156
vt 0.9902344 0.1875
vt 0.9902344 0.2587891
f 53/53/53 54/54/54 55/55/55
f 54/54/54 56/56/56 55/55/55
f 55/55/55 56/56/56 57/57/57
f 56/56/56 58/58/58 57/57/57
f 57/57/57 58/58/58 59/59/59
v 0.3833008 0.06079102 4.287109
v 2.447754 2.563721 2.579834
v 0.3833008 2.898193 2.600098
v 2.917236 3.177979 0
v 0.3833008 4.096924 0
v 0.3833008 2.898193 -2.600098
vn 0.01757813 0.3847656 0.921875
vn 0.5566406 0.5742188 0.6015625
vn 0.08789063 0.7988281 0.5957031
vn 0.4980469 0.8671875 0
vn 0 0.9980469 0
vn 0.08789063 0.7988281 -0.5957031
vt 0.9902344 -0.01074219
vt 0.8955078 0.1318359
vt 0.8847656 -0.01074219
vt 0.8491211 0.1689453
vt 0.8500977 -0.01074219
vt 0.8847656 -0.01074219
f 60/60/60 61/61/61 62/62/62
f 61/61/61 63/63/63 62/62/62
f 62/62/62 63/63/63 64/64/64
f 63/63/63 65/65/65 64/64/64
v -3.048096 -1.969727 -3.214355
v -4.526123 -2.531494 0
v -5.290527 -1.982422 0
v -3.048096 -1.969727 3.214355
v -3.771973 -1.391846 3.818359
v 0.3833008 -0.777832 5.400146
vn -0.4433594 -0.6445313 -0.6230469
vn -0.8417969 -0.5410156 0
vn -0.8808594 -0.4726563 0
vn -0.4433594 -0.6445313 0.6230469
vn -0.6855469 -0.0703125 0.7246094
vn 0 -0.4140625 0.9101563
vt 0.3442383 -0.1875
vt 0.5 -0.1875
vt 0.5 -0.1503906
vt 0.65625 -0.1875
vt 0.6831055 -0.1503906
vt 0.6782227 -0.5
f 66/66/66 67/67/67 68/68/68
f 67/67/67 69/69/69 68/68/68
f 68/68/68 69/69/69 70/70/70
f 69/69/69 71/71/71 70/70/70
v 5.133057 -2.491455 0
v 6.057129 -1.982422 0
v 3.814697 -1.969727 3.214355
v 4.538574 -1.391846 3.818359
v 0.3833008 -0.777832 5.400146
vn 0.8515625 -0.5234375 0
vn 0.8515625 -0.5234375 0
vn 0.4375 -0.65625 0.6132813
vn 0.6855469 -0.0703125 0.7246094
vn 0 -0.4140625 0.9101563
vt 0.5 -0.8125
vt 0.5 -0.8496094
vt 0.6567383 -0.8125
vt 0.6831055 -0.8496094
vt 0.6782227 -0.5
f 72/72/72 73/73/73 74/74/74
f 73/73/73 75/75/75 74/74/74
f 74/74/74 75/75/75 76/76/76
v -4.339844 -1.011963 0
v -3.823486 1.91748 0
v -2.741699 -0.230957 -2.899414
v -1.983398 2.634766 -2.620117
v 0.3833008 0.06079102 -4.287109
vn -0.984375 0.1738281 0
vn -0.9042969 0.4277344 0
vn -0.7382813 0.2148438 -0.640625
vn -0.4453125 0.6621094 -0.6015625
vn 0.01757813 0.3847656 -0.921875
vt 1.22998 -0.4980469
vt 1.155762 -0.4648438
vt 1.22998 -0.3662109
vt 1.157227 -0.3085938
vt 1.22998 -0.1474609
f 77/77/77 78/78/78 79/79/79
f 78/78/78 80/80/80 79/79/79
f 79/79/79 80/80/80 81/81/81
v -5.290527 -1.982422 0
v -3.771973 -1.391846 3.818359
v 0.3833008 3.314941 0
v 0.3833008 -0.777832 5.400146
v 4.538574 -1.391846 3.818359
vn -0.8808594 -0.4726563 0
vn -0.6855469 -0.0703125 0.7246094
vn 0 0.9980469 0
vn 0 -0.4140625 0.9101563
vn 0.6855469 -0.0703125 0.7246094
vt 0.2749023 -0.1171875
vt 0.2749023 -0.1191406
vt 0.2749023 0.0859375
vt 0.2749023 -0.1171875
vt 0.2749023 -0.1210938
f 82/82/82 83/83/83 84/84/84
f 83/83/83 85/85/85 84/84/84
f 84/84/84 85/85/85 86/86/86
v 0.3833008 4.096924 0
v -1.983398 2.634766 2.620117
v 0.3833008 2.898193 2.600098
v 0.3833008 0.06079102 4.287109
vn 0 0.9980469 0
vn -0.4453125 0.6621094 0.6015625
vn 0.08789063 0.7988281 0.5957031
vn 0.01757813 0.3847656 0.921875
vt 1.096191 -0.1455078
vt 1.157227 -0.3085938
vt 1.145508 -0.1455078
vt 1.22998 -0.1474609
f 87/87/87 88/88/88 89/89/89
f 88/88/88 90/90/90 89/89/89
v 0.3833008 -5.700439 -1.717041
v 0.3833008 -4.119873 -3.732178
v 4.263184 -4.119873 -1.502686
v 3.814697 -1.969727 -3.214355
vn 0 -0.9179688 -0.3945313
vn 0 -0.5761719 -0.8164063
vn 0.6503906 -0.6542969 -0.3867188
vn 0.4375 -0.65625 -0.6132813
vt 0.4790039 -0.5009766
vt 0.390625 -0.5
vt 0.4150391 -0.7578125
vt 0.3432617 -0.8125
f 91/91/91 92/92/92 93/93/93
f 92/92/92 94/94/94 93/93/93
v 0.3833008 -5.998047 0
v 0.3833008 -5.700439 -1.717041
v 1.900146 -5.758789 0
v 4.263184 -4.119873 -1.502686
vn 0 -1 0
vn 0 -0.9179688 -0.3945313
vn 0.3398438 -0.9414063 0
vn 0.6503906 -0.6542969 -0.3867188
vt 0.5 -0.5009766
vt 0.4790039 -0.5009766
vt 0.5 -0.5478516
vt 0.4150391 -0.7578125
f 95/95/95 96/96/96 97/97/97
f 96/96/96 98/98/98 97/97/97
v 0.3833008 -0.777832 -5.400146
v -3.048096 -1.969727 -3.214355
v -3.771973 -1.391846 -3.818359
v -5.290527 -1.982422 0
vn 0 -0.4140625 -0.9101563
vn -0.4433594 -0.6445313 -0.6230469
vn -0.6855469 -0.0703125 -0.7246094
vn -0.8808594 -0.4726563 0
vt 0.3217773 -0.5
vt 0.3442383 -0.1875
vt 0.3168945 -0.1503906
vt 0.5 -0.1503906
f 99/99/99 100/100/100 101/101/101
f 100/100/100 102/102/102 101/101/101
v -5.290527 -1.982422 0
v 0.3833008 3.314941 0
v -3.771973 -1.391846 -3.818359
v 0.3833008 -0.777832 -5.400146
vn -0.8808594 -0.4726563 0
vn 0 0.9980469 0
vn -0.6855469 -0.0703125 -0.7246094
vn 0 -0.4140625 -0.9101563
vt 0.2749023 -0.1171875
vt 0.2749023 0.0859375
vt 0.2749023 -0.1191406
vt 0.2749023 -0.1171875
f 103/103/103 104/104/104 105/105/105
f 104/104/104 106/106/106 105/105/105
v 0.3833008 -0.777832 -5.400146
v 0.3833008 3.314941 0
v 4.538574 -1.391846 -3.818359
v 6.057129 -1.982422 0
vn 0 -0.4140625 -0.9101563
vn 0 0.9980469 0
vn 0.6855469 -0.0703125 -0.7246094
vn 0.8515625 -0.5234375 0
vt 0.2749023 -0.1171875
vt 0.2749023 0.0859375
vt 0.2749023 -0.1210938
vt 0.2749023 -0.1162109
f 107/107/107 108/108/108 109/109/109
f 108/108/108 110/110/110 109/109/109
v 0.3833008 -1.411621 4.589111
v 0.3833008 -0.777832 5.400146
v -3.048096 -1.969727 3.214355
v -2.741699 -0.230957 2.899414
v 0.3833008 0.06079102 4.287109
v -1.983398 2.634766 2.620117
v -1.983398 2.634766 -2.620117
v -3.823486 1.91748 0
v -2.577393 3.093994 0
v 3.814697 -1.969727 -3.214355
v 0.3833008 -4.119873 -3.732178
v 0.3833008 -1.411621 -4.589111
v 4.724854 1.227051 0
v 5.108154 -1.078857 0
v 3.312988 -0.230957 -2.899414
v 4.538574 -1.391846 3.818359
v 6.057129 -1.982422 0
v 0.3833008 3.314941 0
vn 0 -0.5664063 0.8242188
vn 0 -0.4140625 0.9101563
vn -0.4433594 -0.6445313 0.6230469
vn -0.7382813 0.2148438 0.640625
vn 0.01757813 0.3847656 0.921875
vn -0.4453125 0.6621094 0.6015625
vn -0.4453125 0.6621094 -0.6015625
vn -0.9042969 0.4277344 0
vn -0.5136719 0.8574219 0
vn 0.4375 -0.65625 -0.6132813
vn 0 -0.5761719 -0.8164063
vn 0 -0.5761719 -0.8164063
vn 0.7617188 0.6484375 0
vn 0.9863281 0.1640625 0
vn 0.6699219 0.4121094 -0.6171875
vn 0.6855469 -0.0703125 0.7246094
vn 0.8515625 -0.5234375 0
vn 0 0.9980469 0
vt 0.6567383 -0.5
vt 0.6782227 -0.5
vt 0.65625 -0.1875
vt 1.22998 -0.3662109
vt 1.22998 -0.1474609
vt 1.157227 -0.3085938
vt 1.157227 -0.3085938
vt 1.155762 -0.4648438
vt 1.090332 -0.3554688
vt 0.3432617 -0.8125
vt 0.390625 -0.5
vt 0.34375 -0.5
vt 0.9550781 0.2910156
vt 0.9902344 0.2587891
vt 0.9902344 0.1875
vt 0.2749023 -0.1210938
vt 0.2749023 -0.1162109
vt 0.2749023 0.0859375
f 111/111/111 112/112/112 113/113/113
f 114/114/114 115/115/115 116/116/116
f 117/117/117 118/118/118 119/119/119
f 120/120/120 121/121/121 122/122/122
f 123/123/123 124/124/124 125/125/125
f 126/126/126 127/127/127 128/128/128
