# Wavefront OBJ file
# Exported by Maverick Model 3D 1.3.11
# Mon Apr 15 18:01:31 2019

mtllib painting.mtl

# 71 Vertices
v 0.2432 0.5186 0.0033
v -0.3281 0.4276 -0.0006
v 0.3123 -0.0601 0.005
v -0.2506 -0.149 0.0011
v -0.3445 0.2804 0.002
v -0.3183 0.1334 0.0008
v -0.3099 0.2859 0.0169
v -0.2905 0.1379 0.0127
v -0.2761 0.2912 0.0005
v -0.2634 0.1421 -0.0004
v -0.2416 0.0005 -0.0015
v -0.2718 -0.0042 0.0131
v -0.3027 -0.0092 0.0
v -0.2503 -0.1431 0.0145
v -0.2307 -0.1165 -0.0025
v -0.2686 -0.1728 -0.0009
v -0.3591 0.4491 0.0022
v -0.3296 0.4307 0.0171
v -0.2994 0.4152 0.0024
v -0.2193 0.4224 0.0039
v -0.0507 0.4562 0.005
v -0.2252 0.4539 0.0188
v -0.0552 0.4803 0.0162
v -0.2268 0.4819 0.0022
v -0.0564 0.5017 0.0037
v 0.1056 0.5312 0.0046
v 0.107 0.5063 0.0194
v 0.1124 0.4782 0.0061
v 0.2532 0.5469 0.0055
v 0.2302 0.5236 0.0211
v 0.2153 0.4967 0.007
v 0.2173 0.3693 0.006
v 0.2437 0.2223 0.0047
v 0.2519 0.3748 0.0208
v 0.2713 0.2267 0.0165
v 0.2857 0.38 0.0044
v 0.2983 0.231 0.0034
v 0.29 0.0847 0.017
v 0.3202 0.0895 0.0024
v 0.2592 0.0798 0.0038
v 0.33 -0.0762 0.002
v 0.3017 -0.06 0.017
v 0.277 -0.0433 0.0019
v -0.1488 -0.1273 0.0145
v -0.1429 -0.1588 -0.0002
v 0.021 -0.1008 0.0126
v 0.0258 -0.1262 0.0007
v -0.1504 -0.0993 -0.0019
v 0.0197 -0.0782 -0.0006
v 0.1819 -0.05 0.0004
v 0.1834 -0.075 0.0151
v 0.1886 -0.103 0.0019
v -0.0599 0.6613 0.0359
v -0.1121 0.6364 0.0391
v -0.0604 0.6648 0.0559
v -0.1125 0.6399 0.059
v -0.1045 0.5799 0.0491
v -0.1049 0.5834 0.069
v -0.0476 0.5697 0.0522
v -0.0481 0.5732 0.0722
v -0.0201 0.6201 0.044
v -0.0205 0.6235 0.0641
v -0.0521 0.5899 -0.0342
v -0.0788 0.6154 0.0567
v -0.0615 0.6282 0.0495
v -0.057 0.6148 0.0589
v -0.3035 0.4421 -0.0041
v -0.0577 0.6022 -0.0065
v -0.0588 0.6129 -0.0
v 0.2161 0.522 -0.0
v -0.0591 0.6133 -0.0125

# 264 Texture Coordinates
vt 0.987 -0.0205
vt 0.1688 -0.0205
vt 0.987 -0.7941
vt 0.1688 -0.7941
vt 0.987 -0.7941
vt 0.1688 -0.0205
vt 0.1495 -0.6291
vt 0.137 -0.3769
vt 0.0817 -0.6291
vt 0.137 -0.3769
vt 0.0826 -0.3769
vt 0.0817 -0.6291
vt 0.0226 -0.6291
vt 0.0817 -0.6291
vt 0.0351 -0.3769
vt 0.0826 -0.3769
vt 0.0351 -0.3769
vt 0.0817 -0.6291
vt 0.0294 -0.1349
vt 0.0351 -0.3769
vt 0.0822 -0.1349
vt 0.0351 -0.3769
vt 0.0826 -0.3769
vt 0.0822 -0.1349
vt 0.1426 -0.1349
vt 0.0822 -0.1349
vt 0.137 -0.3769
vt 0.0826 -0.3769
vt 0.137 -0.3769
vt 0.0822 -0.1349
vt 0.0822 -0.1349
vt 0.0757 0.1026
vt 0.0294 -0.1349
vt 0.0294 -0.1349
vt 0.0757 0.1026
vt 0.0373 0.0634
vt 0.1196 0.1475
vt 0.0757 0.1026
vt 0.1426 -0.1349
vt 0.0822 -0.1349
vt 0.1426 -0.1349
vt 0.0757 0.1026
vt 0.1359 -0.9146
vt 0.1495 -0.6291
vt 0.0833 -0.8761
vt 0.1495 -0.6291
vt 0.0817 -0.6291
vt 0.0833 -0.8761
vt 0.0833 -0.8761
vt 0.0817 -0.6291
vt 0.0352 -0.8424
vt 0.0817 -0.6291
vt 0.0226 -0.6291
vt 0.0352 -0.8424
vt 0.0092 -0.0844
vt 0.0268 -0.3788
vt 0.0888 -0.0844
vt 0.0268 -0.3788
vt 0.0876 -0.3788
vt 0.0888 -0.0844
vt 0.0888 -0.0844
vt 0.0876 -0.3788
vt 0.1583 -0.0844
vt 0.0876 -0.3788
vt 0.1408 -0.3788
vt 0.1583 -0.0844
vt 0.1503 -0.6613
vt 0.1408 -0.3788
vt 0.0883 -0.6613
vt 0.1408 -0.3788
vt 0.0876 -0.3788
vt 0.0883 -0.6613
vt 0.0173 -0.6613
vt 0.0883 -0.6613
vt 0.0268 -0.3788
vt 0.0876 -0.3788
vt 0.0268 -0.3788
vt 0.0883 -0.6613
vt 0.1313 -0.9159
vt 0.1503 -0.6613
vt 0.0828 -0.8749
vt 0.1503 -0.6613
vt 0.0883 -0.6613
vt 0.0828 -0.8749
vt 0.0828 -0.8749
vt 0.0883 -0.6613
vt 0.0228 -0.8406
vt 0.0883 -0.6613
vt 0.0173 -0.6613
vt 0.0228 -0.8406
vt 0.0888 -0.0844
vt 0.0725 0.0987
vt 0.0092 -0.0844
vt 0.0092 -0.0844
vt 0.0725 0.0987
vt 0.0229 0.0538
vt 0.1291 0.1477
vt 0.0725 0.0987
vt 0.1583 -0.0844
vt 0.0888 -0.0844
vt 0.1583 -0.0844
vt 0.0725 0.0987
vt 0.0256 -0.1428
vt 0.0384 -0.395
vt 0.0934 -0.1428
vt 0.0384 -0.395
vt 0.0925 -0.395
vt 0.0934 -0.1428
vt 0.1525 -0.1428
vt 0.0934 -0.1428
vt 0.1397 -0.395
vt 0.0925 -0.395
vt 0.1397 -0.395
vt 0.0934 -0.1428
vt 0.0929 -0.637
vt 0.1457 -0.637
vt 0.0925 -0.395
vt 0.1397 -0.395
vt 0.0925 -0.395
vt 0.1457 -0.637
vt 0.0325 -0.637
vt 0.0929 -0.637
vt 0.0384 -0.395
vt 0.0925 -0.395
vt 0.0384 -0.395
vt 0.0929 -0.637
vt 0.1242 -0.9161
vt 0.1457 -0.637
vt 0.0798 -0.8816
vt 0.1457 -0.637
vt 0.0929 -0.637
vt 0.0798 -0.8816
vt 0.0929 -0.637
vt 0.0325 -0.637
vt 0.0798 -0.8816
vt 0.0325 -0.637
vt 0.0354 -0.847
vt 0.0798 -0.8816
vt 0.0934 -0.1428
vt 0.0891 0.1112
vt 0.0256 -0.1428
vt 0.0256 -0.1428
vt 0.0891 0.1112
vt 0.0524 0.0704
vt 0.1331 0.1442
vt 0.0891 0.1112
vt 0.1525 -0.1428
vt 0.0934 -0.1428
vt 0.1525 -0.1428
vt 0.0891 0.1112
vt 0.0793 -0.6838
vt 0.1589 -0.6838
vt 0.0802 -0.3894
vt 0.1446 -0.3894
vt 0.0802 -0.3894
vt 0.1589 -0.6838
vt 0.0098 -0.6838
vt 0.0793 -0.6838
vt 0.024 -0.3894
vt 0.0802 -0.3894
vt 0.024 -0.3894
vt 0.0793 -0.6838
vt 0.0178 -0.1069
vt 0.024 -0.3894
vt 0.0798 -0.1069
vt 0.024 -0.3894
vt 0.0802 -0.3894
vt 0.0798 -0.1069
vt 0.1508 -0.1069
vt 0.0798 -0.1069
vt 0.1446 -0.3894
vt 0.0802 -0.3894
vt 0.1446 -0.3894
vt 0.0798 -0.1069
vt 0.0798 -0.1069
vt 0.0889 0.098
vt 0.0178 -0.1069
vt 0.0178 -0.1069
vt 0.0889 0.098
vt 0.0382 0.0566
vt 0.1397 0.1394
vt 0.0889 0.098
vt 0.1508 -0.1069
vt 0.0798 -0.1069
vt 0.1508 -0.1069
vt 0.0889 0.098
vt 0.1447 -0.9008
vt 0.1589 -0.6838
vt 0.0786 -0.8598
vt 0.1589 -0.6838
vt 0.0793 -0.6838
vt 0.0786 -0.8598
vt 0.0793 -0.6838
vt 0.0098 -0.6838
vt 0.0786 -0.8598
vt 0.0098 -0.6838
vt 0.021 -0.824
vt 0.0786 -0.8598
vt 0.3454 -0.8406
vt 0.2537 -0.8679
vt 0.3454 -0.8351
vt 0.2537 -0.8679
vt 0.2537 -0.8624
vt 0.3454 -0.8351
vt 0.2537 -0.8679
vt 0.2537 -0.9562
vt 0.2537 -0.8624
vt 0.2537 -0.9562
vt 0.2537 -0.9508
vt 0.2537 -0.8624
vt 0.2537 -0.9562
vt 0.3454 -0.9835
vt 0.2537 -0.9508
vt 0.3454 -0.9835
vt 0.3454 -0.978
vt 0.2537 -0.9508
vt 0.3454 -0.9835
vt 0.402 -0.912
vt 0.3454 -0.978
vt 0.402 -0.912
vt 0.402 -0.9066
vt 0.3454 -0.978
vt 0.402 -0.912
vt 0.3454 -0.8406
vt 0.402 -0.9066
vt 0.3454 -0.8406
vt 0.3454 -0.8351
vt 0.402 -0.9066
vt 0.3454 -0.8351
vt 0.2537 -0.8624
vt 0.402 -0.9066
vt 0.402 -0.9066
vt 0.2537 -0.8624
vt 0.3454 -0.978
vt 0.2537 -0.8624
vt 0.2537 -0.9508
vt 0.3454 -0.978
vt 0.4355 -0.9155
vt 0.3039 -0.8835
vt 0.4285 -0.8548
vt 0.4355 -0.9155
vt 0.433 -0.8763
vt 0.3039 -0.8835
vt 0.4355 -0.9155
vt 0.4285 -0.8548
vt 0.433 -0.8763
vt 0.3104 -0.884
vt 0.7172 -0.8273
vt 0.7172 -0.8651
vt 0.7195 -0.8273
vt 0.3014 -0.884
vt 0.7195 -0.8651
vt 0.3104 -0.884
vt 0.7172 -0.8651
vt 0.7172 -0.9029
vt 0.7195 -0.8651
vt 0.3014 -0.884
vt 0.7195 -0.9029
vt 0.3104 -0.884
vt 0.7172 -0.9029
vt 0.7172 -0.9408
vt 0.7195 -0.9029
vt 0.3014 -0.884
vt 0.7195 -0.9408

# 264 Vertex Normals
vn -0.007158 0.002083 0.999972
vn -0.007199 0.002029 0.999972
vn -0.007199 0.002029 0.999972
vn -0.00724 0.001975 0.999972
vn -0.007199 0.002029 0.999972
vn -0.007199 0.002029 0.999972
vn -0.414766 -0.057333 0.90812
vn -0.384028 -0.061897 0.921245
vn 0.093908 -0.002475 0.995578
vn -0.384028 -0.061897 0.921245
vn 0.024623 -0.009542 0.999651
vn 0.093908 -0.002475 0.995578
vn 0.429793 0.04892 0.901601
vn 0.093908 -0.002475 0.995578
vn 0.42944 0.044951 0.901976
vn 0.024623 -0.009542 0.999651
vn 0.42944 0.044951 0.901976
vn 0.093908 -0.002475 0.995578
vn 0.491372 0.061692 0.868762
vn 0.42944 0.044951 0.901976
vn 0.022994 0.008573 0.999699
vn 0.42944 0.044951 0.901976
vn 0.024623 -0.009542 0.999651
vn 0.022994 0.008573 0.999699
vn -0.431865 -0.070617 0.899169
vn 0.022994 0.008573 0.999699
vn -0.384028 -0.061897 0.921245
vn 0.024623 -0.009542 0.999651
vn -0.384028 -0.061897 0.921245
vn 0.022994 0.008573 0.999699
vn 0.022994 0.008573 0.999699
vn 0.004573 0.024472 0.99969
vn 0.491372 0.061692 0.868762
vn 0.491372 0.061692 0.868762
vn 0.004573 0.024472 0.99969
vn 0.270855 0.368713 0.889207
vn -0.25314 -0.317814 0.913737
vn 0.004573 0.024472 0.99969
vn -0.431865 -0.070617 0.899169
vn 0.022994 0.008573 0.999699
vn -0.431865 -0.070617 0.899169
vn 0.004573 0.024472 0.99969
vn -0.313844 0.2406 0.918485
vn -0.414766 -0.057333 0.90812
vn -0.086017 -0.015113 0.996179
vn -0.414766 -0.057333 0.90812
vn 0.093908 -0.002475 0.995578
vn -0.086017 -0.015113 0.996179
vn -0.086017 -0.015113 0.996179
vn 0.093908 -0.002475 0.995578
vn 0.33729 -0.185741 0.922895
vn 0.093908 -0.002475 0.995578
vn 0.429793 0.04892 0.901601
vn 0.33729 -0.185741 0.922895
vn 0.06649 -0.494222 0.866789
vn 0.063327 -0.413939 0.908099
vn 0.009261 -0.051828 0.998613
vn 0.063327 -0.413939 0.908099
vn -0.022964 0.153178 0.987932
vn 0.009261 -0.051828 0.998613
vn 0.009261 -0.051828 0.998613
vn -0.022964 0.153178 0.987932
vn -0.094981 0.501427 0.85997
vn -0.022964 0.153178 0.987932
vn -0.086416 0.501058 0.861088
vn -0.094981 0.501427 0.85997
vn -0.082889 0.537909 0.838918
vn -0.086416 0.501058 0.861088
vn -0.008763 -0.037049 0.999275
vn -0.086416 0.501058 0.861088
vn -0.022964 0.153178 0.987932
vn -0.008763 -0.037049 0.999275
vn 0.058685 -0.417837 0.906625
vn -0.008763 -0.037049 0.999275
vn 0.063327 -0.413939 0.908099
vn -0.022964 0.153178 0.987932
vn 0.063327 -0.413939 0.908099
vn -0.008763 -0.037049 0.999275
vn 0.230298 0.374123 0.898329
vn -0.082889 0.537909 0.838918
vn -0.038138 0.115981 0.992519
vn -0.082889 0.537909 0.838918
vn -0.008763 -0.037049 0.999275
vn -0.038138 0.115981 0.992519
vn -0.038138 0.115981 0.992519
vn -0.008763 -0.037049 0.999275
vn -0.200254 -0.33633 0.920207
vn -0.008763 -0.037049 0.999275
vn 0.058685 -0.417837 0.906625
vn -0.200254 -0.33633 0.920207
vn 0.009261 -0.051828 0.998613
vn -0.086017 -0.015113 0.996179
vn 0.06649 -0.494222 0.866789
vn 0.06649 -0.494222 0.866789
vn -0.086017 -0.015113 0.996179
vn 0.33729 -0.185741 0.922895
vn -0.313844 0.2406 0.918485
vn -0.086017 -0.015113 0.996179
vn -0.094981 0.501427 0.85997
vn 0.009261 -0.051828 0.998613
vn -0.094981 0.501427 0.85997
vn -0.086017 -0.015113 0.996179
vn -0.485805 -0.051024 0.872576
vn -0.3842 -0.06225 0.921149
vn 0.026488 -0.016415 0.999514
vn -0.3842 -0.06225 0.921149
vn 0.113466 0.005544 0.993526
vn 0.026488 -0.016415 0.999514
vn 0.452152 0.060639 0.889877
vn 0.026488 -0.016415 0.999514
vn 0.431012 0.040294 0.901446
vn 0.113466 0.005544 0.993526
vn 0.431012 0.040294 0.901446
vn 0.026488 -0.016415 0.999514
vn -0.066731 -0.007173 0.997745
vn 0.441476 0.0451 0.896139
vn 0.113466 0.005544 0.993526
vn 0.431012 0.040294 0.901446
vn 0.113466 0.005544 0.993526
vn 0.441476 0.0451 0.896139
vn -0.449373 -0.058204 0.891446
vn -0.066731 -0.007173 0.997745
vn -0.3842 -0.06225 0.921149
vn 0.113466 0.005544 0.993526
vn -0.3842 -0.06225 0.921149
vn -0.066731 -0.007173 0.997745
vn 0.31358 -0.289552 0.904338
vn 0.441476 0.0451 0.896139
vn -0.004628 0.010356 0.999936
vn 0.441476 0.0451 0.896139
vn -0.066731 -0.007173 0.997745
vn -0.004628 0.010356 0.999936
vn -0.066731 -0.007173 0.997745
vn -0.449373 -0.058204 0.891446
vn -0.004628 0.010356 0.999936
vn -0.449373 -0.058204 0.891446
vn -0.345822 0.294151 0.891001
vn -0.004628 0.010356 0.999936
vn 0.026488 -0.016415 0.999514
vn -0.038138 0.115981 0.992519
vn -0.485805 -0.051024 0.872576
vn -0.485805 -0.051024 0.872576
vn -0.038138 0.115981 0.992519
vn -0.200254 -0.33633 0.920207
vn 0.230298 0.374123 0.898329
vn -0.038138 0.115981 0.992519
vn 0.452152 0.060639 0.889877
vn 0.026488 -0.016415 0.999514
vn 0.452152 0.060639 0.889877
vn -0.038138 0.115981 0.992519
vn -0.017214 0.15244 0.988163
vn 0.06554 -0.42959 0.900642
vn 0.008992 -0.053594 0.998522
vn 0.059857 -0.414968 0.907865
vn 0.008992 -0.053594 0.998522
vn 0.06554 -0.42959 0.900642
vn -0.094064 0.535873 0.839043
vn -0.017214 0.15244 0.988163
vn -0.080491 0.500112 0.862212
vn 0.008992 -0.053594 0.998522
vn -0.080491 0.500112 0.862212
vn -0.017214 0.15244 0.988163
vn -0.075516 0.543043 0.836302
vn -0.080491 0.500112 0.862212
vn -0.022326 0.04651 0.998668
vn -0.080491 0.500112 0.862212
vn 0.008992 -0.053594 0.998522
vn -0.022326 0.04651 0.998668
vn 0.066488 -0.470556 0.879862
vn -0.022326 0.04651 0.998668
vn 0.059857 -0.414968 0.907865
vn 0.008992 -0.053594 0.998522
vn 0.059857 -0.414968 0.907865
vn -0.022326 0.04651 0.998668
vn -0.022326 0.04651 0.998668
vn -0.004628 0.010356 0.999936
vn -0.075516 0.543043 0.836302
vn -0.075516 0.543043 0.836302
vn -0.004628 0.010356 0.999936
vn -0.345822 0.294151 0.891001
vn 0.31358 -0.289552 0.904338
vn -0.004628 0.010356 0.999936
vn 0.066488 -0.470556 0.879862
vn -0.022326 0.04651 0.998668
vn 0.066488 -0.470556 0.879862
vn -0.004628 0.010356 0.999936
vn -0.25314 -0.317814 0.913737
vn 0.06554 -0.42959 0.900642
vn 0.004573 0.024472 0.99969
vn 0.06554 -0.42959 0.900642
vn -0.017214 0.15244 0.988163
vn 0.004573 0.024472 0.99969
vn -0.017214 0.15244 0.988163
vn -0.094064 0.535873 0.839043
vn 0.004573 0.024472 0.99969
vn -0.094064 0.535873 0.839043
vn 0.270855 0.368713 0.889207
vn 0.004573 0.024472 0.99969
vn 0.408046 0.900991 -0.147358
vn -0.74325 0.656088 -0.130869
vn -0.056387 0.983315 -0.172951
vn -0.74325 0.656088 -0.130869
vn -0.966608 0.248365 -0.063112
vn -0.056387 0.983315 -0.172951
vn -0.74325 0.656088 -0.130869
vn -0.866633 -0.494084 0.069479
vn -0.966608 0.248365 -0.063112
vn -0.866633 -0.494084 0.069479
vn -0.543229 -0.828798 0.134148
vn -0.966608 0.248365 -0.063112
vn -0.866633 -0.494084 0.069479
vn 0.206093 -0.962874 0.174355
vn -0.543229 -0.828798 0.134148
vn 0.206093 -0.962874 0.174355
vn 0.631666 -0.761343 0.146135
vn -0.543229 -0.828798 0.134148
vn 0.206093 -0.962874 0.174355
vn 0.994224 -0.099774 0.039543
vn 0.631666 -0.761343 0.146135
vn 0.994224 -0.099774 0.039543
vn 0.932677 0.358241 -0.042149
vn 0.631666 -0.761343 0.146135
vn 0.994224 -0.099774 0.039543
vn 0.408046 0.900991 -0.147358
vn 0.932677 0.358241 -0.042149
vn 0.408046 0.900991 -0.147358
vn -0.056387 0.983315 -0.172951
vn 0.932677 0.358241 -0.042149
vn -0.023841 0.172481 0.984724
vn -0.024201 0.171743 0.984845
vn -0.02391 0.172116 0.984786
vn -0.02391 0.172116 0.984786
vn -0.024201 0.171743 0.984845
vn -0.024381 0.171373 0.984904
vn -0.024201 0.171743 0.984845
vn -0.024784 0.170995 0.98496
vn -0.024381 0.171373 0.984904
vn -0.647161 0.663116 -0.376113
vn -0.647161 0.663116 -0.376113
vn -0.647161 0.663116 -0.376113
vn -0.052351 -0.965405 0.255446
vn -0.052351 -0.965405 0.255446
vn -0.052351 -0.965405 0.255446
vn 0.953685 0.29932 -0.02986
vn 0.953685 0.29932 -0.02986
vn 0.953685 0.29932 -0.02986
vn 0.313682 -0.469218 0.825493
vn 0.072368 -0.512379 0.855705
vn 0.072368 -0.512379 0.855705
vn 0.072368 -0.512379 0.855705
vn -0.173362 -0.52428 0.833712
vn 0.072368 -0.512379 0.855705
vn -0.572353 0.819034 0.039946
vn -0.144558 0.988873 0.035114
vn -0.144558 0.988873 0.035114
vn -0.144558 0.988873 0.035114
vn 0.313865 0.949193 0.022842
vn -0.144558 0.988873 0.035114
vn 0.272178 -0.430771 -0.860439
vn 0.077055 -0.466563 -0.881125
vn 0.077055 -0.466563 -0.881125
vn 0.077055 -0.466563 -0.881125
vn -0.121133 -0.483794 -0.866758
vn 0.077055 -0.466563 -0.881125

# Object001, 88 grouped triangles

usemtl wire_227153153
o Object001
g Object001

f 1/1/1 2/2/2 3/3/3
f 4/4/4 3/5/5 2/6/6
f 5/7/7 6/8/8 7/9/9
f 6/10/10 8/11/11 7/12/12
f 9/13/13 7/14/14 10/15/15
f 8/16/16 10/17/17 7/18/18
f 11/19/19 10/20/20 12/21/21
f 10/22/22 8/23/23 12/24/24
f 13/25/25 12/26/26 6/27/27
f 8/28/28 6/29/29 12/30/30
f 12/31/31 14/32/32 11/33/33
f 11/34/34 14/35/35 15/36/36
f 16/37/37 14/38/38 13/39/39
f 12/40/40 13/41/41 14/42/42
f 17/43/43 5/44/44 18/45/45
f 5/46/46 7/47/47 18/48/48
f 18/49/49 7/50/50 19/51/51
f 7/52/52 9/53/53 19/54/54
f 20/55/55 21/56/56 22/57/57
f 21/58/58 23/59/59 22/60/60
f 22/61/61 23/62/62 24/63/63
f 23/64/64 25/65/65 24/66/66
f 26/67/67 25/68/68 27/69/69
f 25/70/70 23/71/71 27/72/72
f 28/73/73 27/74/74 21/75/75
f 23/76/76 21/77/77 27/78/78
f 29/79/79 26/80/80 30/81/81
f 26/82/82 27/83/83 30/84/84
f 30/85/85 27/86/86 31/87/87
f 27/88/88 28/89/89 31/90/90
f 22/91/91 18/92/92 20/93/93
f 20/94/94 18/95/95 19/96/96
f 17/97/97 18/98/98 24/99/99
f 22/100/100 24/101/101 18/102/102
f 32/103/103 33/104/104 34/105/105
f 33/106/106 35/107/107 34/108/108
f 36/109/109 34/110/110 37/111/111
f 35/112/112 37/113/113 34/114/114
f 38/115/115 39/116/116 35/117/117
f 37/118/118 35/119/119 39/120/120
f 40/121/121 38/122/122 33/123/123
f 35/124/124 33/125/125 38/126/126
f 41/127/127 39/128/128 42/129/129
f 39/130/130 38/131/131 42/132/132
f 38/133/133 40/134/134 42/135/135
f 40/136/136 43/137/137 42/138/138
f 34/139/139 30/140/140 32/141/141
f 32/142/142 30/143/143 31/144/144
f 29/145/145 30/146/146 36/147/147
f 34/148/148 36/149/149 30/150/150
f 44/151/151 45/152/152 46/153/153
f 47/154/154 46/155/155 45/156/156
f 48/157/157 44/158/158 49/159/159
f 46/160/160 49/161/161 44/162/162
f 50/163/163 49/164/164 51/165/165
f 49/166/166 46/167/167 51/168/168
f 52/169/169 51/170/170 47/171/171
f 46/172/172 47/173/173 51/174/174
f 51/175/175 42/176/176 50/177/177
f 50/178/178 42/179/179 43/180/180
f 41/181/181 42/182/182 52/183/183
f 51/184/184 52/185/185 42/186/186
f 16/187/187 45/188/188 14/189/189
f 45/190/190 44/191/191 14/192/192
f 44/193/193 48/194/194 14/195/195
f 48/196/196 15/197/197 14/198/198
f 53/199/199 54/200/200 55/201/201
f 54/202/202 56/203/203 55/204/204
f 54/205/205 57/206/206 56/207/207
f 57/208/208 58/209/209 56/210/210
f 57/211/211 59/212/212 58/213/213
f 59/214/214 60/215/215 58/216/216
f 59/217/217 61/218/218 60/219/219
f 61/220/220 62/221/221 60/222/222
f 61/223/223 53/224/224 62/225/225
f 53/226/226 55/227/227 62/228/228
f 55/229/229 56/230/230 62/231/231
f 62/232/232 56/233/233 60/234/234
f 56/235/235 58/236/236 60/237/237
f 63/238/238 64/239/239 65/240/240
f 63/241/241 66/242/242 64/243/243
f 63/244/244 65/245/245 66/246/246
f 67/247/247 68/248/248 69/249/249
f 68/250/250 70/251/251 69/252/252
f 67/253/253 69/254/254 71/255/255
f 69/256/256 70/257/257 71/258/258
f 67/259/259 71/260/260 68/261/261
f 71/262/262 70/263/263 68/264/264
