# Wavefront OBJ file
# Exported by Misfit Model 3D 1.3.8
# Wed Oct 24 08:07:44 2018

mtllib log.mtl

# 64 Vertices
v -0.0675 0.144 -0.0945
v -0.0675 0.144 -0.0765
v -0.0855 0.126 -0.0855
v -0.0585 0.162 -0.0585
v -0.0675 0.144 -0.0495
v -0.0855 0.126 -0.0585
v -0.0585 0.162 -0.0855
v -0.0315 0.126 0.1215
v -0.0045 0.117 0.1035
v -0.0045 0.126 0.1125
v -0.0405 0.099 0.0945
v -0.0675 0.099 0.1035
v -0.0225 0.135 0.0585
v -0.0495 0.099 0.0675
v -0.0675 0.099 0.0675
v -0.0045 0.117 0.0675
v 0.0045 0.135 0.0675
v -0.0405 0.108 0.3195
v -0.0765 0.099 0.3195
v -0.0315 0.144 0.3195
v -0.0045 0.117 -0.3195
v 0.0315 0.144 -0.3195
v -0.0315 0.144 -0.3195
v -0.0585 0.09 -0.3195
v -0.0765 0.099 -0.3195
v 0.0585 0.09 -0.3195
v 0.0855 0.099 -0.3195
v 0.0675 0.045 -0.3195
v 0.1035 0.036 -0.3195
v 0.0405 -0.0 -0.3195
v 0.0765 -0.0 -0.3195
v -0.0405 -0.0 -0.3195
v -0.0675 0.045 -0.3195
v -0.0675 -0.0 -0.3195
v -0.0945 0.036 -0.3195
v 0.0585 0.135 0.3195
v 0.0855 0.108 0.3195
v 0.0405 0.108 0.3195
v 0.0585 0.09 0.3195
v 0.1035 0.036 0.3195
v 0.0765 -0.0 0.3195
v 0.0675 0.045 0.3195
v 0.0405 -0.0 0.3195
v -0.0675 -0.0 0.3195
v -0.0945 0.036 0.3195
v -0.0405 -0.0 0.3195
v -0.0675 0.045 0.3195
v 0.0225 0.117 0.3195
v 0.0315 0.144 0.3195
v -0.0675 0.099 -0.0225
v -0.0225 0.144 -0.121491
v -0.0765 0.09 -0.121491
v -0.0855 0.045 0.1035
v -0.1035 0.036 -0.121491
v 0.0855 0.036 0.1125
v 0.0675 0.099 0.1125
v 0.0945 0.045 -0.121491
v 0.0765 0.09 -0.1125
v -0.0225 0.144 -0.0225
v 0.0225 0.135 -0.1125
v -0.0675 -0.0 0.1035
v -0.0855 -0.0 -0.1125
v 0.0585 -0.0 0.1125
v 0.0675 -0.0 -0.121491

# 351 Texture Coordinates
vt -0.015625 0.96875
vt 0.4375 0.0
vt 1.0 0.9375
vt 1.078125 0.9375
vt -0.15625 0.96875
vt 0.5625 0.0
vt 0.078125 1.0
vt 0.9375 0.96875
vt 0.4375 0.03125
vt 0.953125 0.9375
vt 0.4375 0.03125
vt -0.25 0.90625
vt 0.546875 -0.09375
vt 1.09375 1.0
vt -0.15625 0.9375
vt -0.078125 0.90625
vt 0.546875 -0.125
vt 1.03125 1.0
vt 0.0625 1.0
vt 0.1875 0.5
vt 1.015625 0.9375
vt 0.0 0.0
vt 1.0 0.0
vt 0.578125 1.15625
vt 0.65625 0.21875
vt 1.09375 1.03125
vt -0.25 1.03125
vt -0.046875 1.0
vt 0.296875 0.46875
vt 1.265625 0.9375
vt -0.03125 0.0625
vt 0.984375 0.09375
vt 0.515625 1.25
vt 0.796875 0.4375
vt 0.921875 1.0
vt -0.046875 1.0625
vt 0.953125 1.0
vt -0.125 1.0
vt 0.4375 0.125
vt 0.984375 1.0
vt -0.140625 0.96875
vt 0.59375 0.0625
vt 0.90625 0.15625
vt 0.078125 1.03125
vt 0.03125 0.0
vt 0.90625 0.15625
vt 1.0625 0.9375
vt 0.078125 1.03125
vt 0.015625 0.09375
vt 0.96875 1.0625
vt -0.09375 1.03125
vt 0.015625 0.09375
vt 1.015625 0.09375
vt 0.96875 1.0625
vt 0.015625 0.34375
vt 0.984375 1.0
vt 0.0 1.0
vt 0.015625 0.34375
vt 0.921875 0.375
vt 0.984375 1.0
vt 0.84375 1.0625
vt 0.078125 0.28125
vt 0.828125 -0.15625
vt 0.84375 1.0625
vt 0.0625 1.0
vt 0.078125 0.28125
vt 0.96875 1.0625
vt 0.125 0.0625
vt 0.828125 0.09375
vt 0.96875 1.0625
vt -0.015625 1.0
vt 0.125 0.0625
vt 1.125 1.03125
vt -0.078125 0.03125
vt 0.875 -0.0625
vt 1.125 1.03125
vt 0.234375 1.0625
vt -0.078125 0.03125
vt 0.703125 1.03125
vt 0.140625 0.0
vt 0.984375 0.09375
vt 0.703125 1.03125
vt -0.046875 1.03125
vt 0.140625 0.0
vt 1.046875 1.0
vt 0.046875 0.0625
vt 0.875 0.0625
vt 1.046875 1.0
vt -0.109375 1.0
vt 0.046875 0.0625
vt 0.328125 0.0625
vt 0.84375 1.0625
vt 0.125 1.03125
vt 0.328125 0.0625
vt 0.796875 -0.03125
vt 0.84375 1.0625
vt 0.15625 0.0625
vt 0.71875 1.03125
vt -0.015625 1.03125
vt 0.15625 0.0625
vt 0.984375 0.09375
vt 0.71875 1.03125
vt 0.125 0.0625
vt 1.03125 1.03125
vt -0.09375 0.96875
vt 0.125 0.0625
vt 0.875 0.09375
vt 1.03125 1.03125
vt 0.0 0.0625
vt 0.96875 1.09375
vt 0.34375 1.03125
vt 0.0 0.0625
vt 0.6875 0.0
vt 0.96875 1.09375
vt 0.0625 0.125
vt 0.90625 1.125
vt -0.03125 1.03125
vt 0.0625 0.125
vt 1.0 -0.1875
vt 0.90625 1.125
vt 0.890625 0.28125
vt 0.15625 1.03125
vt 0.015625 0.0
vt 0.890625 0.28125
vt 1.015625 0.96875
vt 0.15625 1.03125
vt 0.40625 0.054688
vt 1.15625 0.539063
vt 0.15625 0.539063
vt 0.28125 0.085938
vt 0.78125 0.429688
vt 0.15625 0.414063
vt -0.03125 0.226563
vt 0.71875 0.226563
vt 0.28125 0.523438
vt 0.96875 0.226563
vt -0.03125 0.992188
vt -0.03125 -0.007813
vt 0.96875 0.226563
vt 0.96875 0.992188
vt -0.03125 0.992188
vt -0.03125 0.398438
vt 0.96875 0.992188
vt -0.03125 0.992188
vt -0.03125 0.398438
vt 0.96875 -0.007813
vt 0.96875 0.992188
vt -0.03125 0.398438
vt -0.03125 -0.007813
vt 0.96875 -0.007813
vt 0.96875 -0.007813
vt -0.03125 0.992188
vt -0.03125 -0.007813
vt 0.96875 -0.007813
vt 0.96875 0.992188
vt -0.03125 0.992188
vt 0.96875 -0.007813
vt -0.03125 0.992188
vt -0.03125 -0.007813
vt 0.96875 -0.007813
vt 0.96875 0.992188
vt -0.03125 0.992188
vt 0.96875 -0.007813
vt -0.03125 0.992188
vt -0.03125 -0.007813
vt 0.96875 -0.007813
vt 0.96875 0.992188
vt -0.03125 0.992188
vt 0.96875 -0.007813
vt -0.03125 0.992188
vt -0.03125 -0.007813
vt 0.96875 -0.007813
vt 0.96875 0.992188
vt -0.03125 0.992188
vt -0.03125 0.101563
vt 0.90625 0.085938
vt 0.46875 0.242188
vt 0.34375 -0.007813
vt 0.53125 0.273438
vt -0.03125 0.304688
vt 0.96875 0.492188
vt 0.96875 0.992188
vt -0.03125 0.992188
vt 0.96875 0.492188
vt -0.03125 0.992188
vt -0.03125 -0.007813
vt 0.96875 -0.007813
vt 0.96875 0.492188
vt -0.03125 -0.007813
vt 0.96875 -0.007813
vt -0.03125 0.992188
vt -0.03125 -0.007813
vt 0.96875 -0.007813
vt 0.96875 0.992188
vt -0.03125 0.992188
vt 0.96875 -0.007813
vt -0.03125 0.992188
vt -0.03125 -0.007813
vt 0.96875 -0.007813
vt 0.96875 0.992188
vt -0.03125 0.992188
vt 0.40625 0.148438
vt 0.46875 0.398438
vt -0.03125 0.398438
vt -0.03125 -0.007813
vt 0.96875 -0.007813
vt 0.96875 0.492188
vt -0.03125 0.992188
vt -0.03125 -0.007813
vt 0.96875 0.492188
vt -0.03125 0.992188
vt 0.96875 0.492188
vt 0.96875 0.992188
vt 0.96875 -0.007813
vt -0.03125 0.992188
vt -0.03125 -0.007813
vt 0.96875 -0.007813
vt 0.96875 0.992188
vt -0.03125 0.992188
vt 0.96875 -0.007813
vt -0.03125 0.992188
vt -0.03125 -0.007813
vt 0.96875 -0.007813
vt 0.96875 0.992188
vt -0.03125 0.992188
vt 0.96875 -0.007813
vt -0.03125 0.992188
vt -0.03125 -0.007813
vt 0.96875 -0.007813
vt 0.96875 0.992188
vt -0.03125 0.992188
vt 0.96875 -0.007813
vt -0.03125 0.992188
vt -0.03125 -0.007813
vt 0.96875 -0.007813
vt 0.59375 0.992188
vt -0.03125 0.992188
vt 0.96875 -0.007813
vt -0.03125 0.992188
vt -0.03125 -0.007813
vt 0.96875 -0.007813
vt 0.96875 0.992188
vt -0.03125 0.992188
vt 0.90625 0.179688
vt 0.34375 0.382813
vt -0.03125 0.164063
vt 0.90625 0.179688
vt 0.53125 0.382813
vt 0.34375 0.382813
vt 0.34375 0.414063
vt 0.96875 0.195313
vt 0.59375 0.414063
vt 0.34375 0.414063
vt -0.03125 0.195313
vt 0.96875 0.195313
vt 0.96875 -0.007813
vt -0.09375 0.492188
vt -0.03125 -0.007813
vt 0.96875 -0.007813
vt 1.03125 0.445313
vt -0.09375 0.492188
vt 0.96875 -0.007813
vt -0.03125 0.992188
vt -0.03125 -0.007813
vt 0.96875 -0.007813
vt 0.96875 0.992188
vt -0.03125 0.992188
vt 0.96875 -0.007813
vt -0.03125 0.992188
vt -0.03125 -0.007813
vt 0.96875 -0.007813
vt 0.96875 0.992188
vt -0.03125 0.992188
vt 0.96875 -0.007813
vt -0.03125 0.992188
vt -0.03125 -0.007813
vt 0.96875 -0.007813
vt 0.96875 0.992188
vt -0.03125 0.992188
vt 0.96875 -0.007813
vt -0.03125 0.992188
vt -0.03125 -0.007813
vt 0.96875 -0.007813
vt 0.96875 0.992188
vt -0.03125 0.992188
vt 0.96875 -0.007813
vt -0.03125 0.992188
vt -0.03125 -0.007813
vt 0.96875 -0.007813
vt 0.96875 0.992188
vt -0.03125 0.992188
vt 1.34375 -0.3125
vt 2.34375 -0.375
vt 2.34375 0.3125
vt 1.34375 -0.3125
vt 2.34375 0.3125
vt -0.625 0.25
vt 0.3125 -0.3125
vt 1.34375 -0.3125
vt -0.625 0.25
vt 0.3125 -0.3125
vt -0.625 0.25
vt -0.625 0.0625
vt -0.9375 -0.5625
vt 0.0 0.0
vt -1.0 -0.125
vt -0.9375 -0.5625
vt 0.03125 -0.5625
vt 0.0 0.0
vt 1.75 0.4375
vt -0.15625 -0.25
vt 1.75 -0.125
vt 1.75 0.4375
vt -0.1875 0.25
vt -0.15625 -0.25
vt 0.0 0.0
vt 1.09375 0.3125
vt 0.0 0.3125
vt 0.0 0.0
vt 1.0625 0.0
vt 1.09375 0.3125
vt 1.4375 0.125
vt 0.0 -0.375
vt 1.46875 -0.3125
vt 1.4375 0.125
vt -0.0625 0.0
vt 0.0 -0.375
vt 4.875 0.4375
vt 2.1875 -0.0625
vt 2.15625 0.3125
vt 4.875 0.4375
vt 4.90625 0.0
vt 2.1875 -0.0625
vt 4.84375 0.9375
vt 4.875 0.4375
vt 2.15625 0.3125
vt 4.84375 0.9375
vt 2.15625 0.3125
vt 2.15625 0.8125
vt 4.78125 2.875
vt 2.0625 3.25
vt 4.75 3.375
vt 4.78125 2.875
vt 2.0625 2.75
vt 2.0625 3.25
vt 4.75 3.375
vt 2.0625 3.25
vt 2.03125 3.6875
vt 4.75 3.375
vt 2.03125 3.6875
vt 4.75 3.8125

# 351 Vertex Normals
vn -0.966361 0.229216 -0.116649
vn -0.811242 0.58471 0.0
vn -0.694063 0.563746 -0.447735
vn -0.692635 0.55765 0.457476
vn -0.806515 0.532101 0.257687
vn -0.811242 0.58471 0.0
vn -0.904516 0.380565 0.192408
vn -0.692635 0.55765 0.457476
vn -0.811242 0.58471 0.0
vn -0.694063 0.563746 -0.447735
vn -0.811242 0.58471 0.0
vn -0.806499 0.532109 -0.257719
vn -0.811242 0.58471 0.0
vn -0.806515 0.532101 0.257687
vn -0.806499 0.532109 -0.257719
vn -0.904516 0.380565 0.192408
vn -0.811242 0.58471 0.0
vn -0.966361 0.229216 -0.116649
vn -0.160242 0.968374 -0.191241
vn -0.702488 0.613 -0.361582
vn -0.223631 0.887398 -0.403131
vn -0.702488 0.613 -0.361582
vn -0.111826 0.92883 -0.353227
vn -0.223631 0.887398 -0.403131
vn -0.111826 0.92883 -0.353227
vn -0.650868 0.7437 -0.152582
vn -0.223631 0.887398 -0.403131
vn -0.193039 0.934272 0.299787
vn -0.053878 0.63678 0.76916
vn -0.379746 0.672915 0.634805
vn -0.053878 0.63678 0.76916
vn -0.757815 0.30323 0.577726
vn -0.379746 0.672915 0.634805
vn -0.757815 0.30323 0.577726
vn -0.175722 0.927754 0.329234
vn -0.379746 0.672915 0.634805
vn 0.0 0.0 1.0
vn 0.0 0.0 1.0
vn 0.137582 -0.280779 0.94986
vn 0.0 0.0 -1.0
vn 0.0 0.0 -1.0
vn 0.0 0.0 -1.0
vn 0.236541 -0.047308 -0.970469
vn 0.0 0.0 -1.0
vn 0.0 0.0 -1.0
vn 0.236541 -0.047308 -0.970469
vn 0.0 0.0 -1.0
vn 0.0 0.0 -1.0
vn -0.111826 0.92883 -0.353227
vn -0.193039 0.934272 0.299787
vn -0.650868 0.7437 -0.152582
vn -0.111826 0.92883 -0.353227
vn -0.053878 0.63678 0.76916
vn -0.193039 0.934272 0.299787
vn -0.757815 0.30323 0.577726
vn -0.539131 0.837514 -0.08892
vn -0.175722 0.927754 0.329234
vn -0.809867 -0.419513 0.410029
vn -0.984832 0.010727 -0.173179
vn -0.846304 0.508912 -0.15741
vn 0.0 0.0 -1.0
vn 0.0 0.0 -1.0
vn 0.0 0.0 -1.0
vn 0.0 0.0 -1.0
vn 0.0 0.0 -1.0
vn 0.0 0.0 -1.0
vn 0.0 0.0 -1.0
vn 0.0 -0.0 -1.0
vn 0.0 0.0 -1.0
vn 0.0 0.0 -1.0
vn 0.0 -0.0 -1.0
vn 0.0 -0.0 -1.0
vn 0.0 -0.0 -1.0
vn 0.0 -0.0 -1.0
vn 0.0 -0.0 -1.0
vn 0.0 -0.0 -1.0
vn 0.0 0.0 -1.0
vn 0.0 -0.0 -1.0
vn -0.579984 -0.365465 -0.728048
vn 0.307977 -0.061595 -0.949398
vn 0.0 0.0 -1.0
vn -0.579984 -0.365465 -0.728048
vn -0.481646 -0.043455 -0.875288
vn 0.307977 -0.061595 -0.949398
vn -0.481646 -0.043455 -0.875288
vn 0.236541 -0.047308 -0.970469
vn 0.307977 -0.061595 -0.949398
vn -0.481646 -0.043455 -0.875288
vn 0.0 0.0 -1.0
vn 0.236541 -0.047308 -0.970469
vn -0.548489 -0.057045 0.83421
vn 0.0 0.0 1.0
vn -0.754256 0.110905 0.647146
vn -0.548489 -0.057045 0.83421
vn -0.214661 -0.214661 0.952807
vn 0.0 0.0 1.0
vn 0.0 -0.0 1.0
vn 0.0 -0.0 1.0
vn 0.0 0.0 1.0
vn 0.0 -0.0 1.0
vn 0.0 -0.0 1.0
vn 0.0 -0.0 1.0
vn -0.214661 -0.214661 0.952807
vn 0.0 0.0 1.0
vn 0.0 0.0 1.0
vn -0.214661 -0.214661 0.952807
vn 0.0 -0.0 1.0
vn 0.0 0.0 1.0
vn 0.0 0.0 1.0
vn 0.0 0.0 1.0
vn 0.0 0.000001 1.0
vn 0.0 0.0 1.0
vn 0.0 -0.0 1.0
vn 0.0 0.0 1.0
vn 0.0 -0.0 1.0
vn 0.0 0.0 1.0
vn 0.0 0.0 1.0
vn 0.0 -0.0 1.0
vn 0.137582 -0.280779 0.94986
vn 0.0 0.0 1.0
vn 0.0 0.0 1.0
vn 0.0 0.0 1.0
vn 0.137582 -0.280779 0.94986
vn 0.0 0.0 1.0
vn 0.0 0.0 1.0
vn 0.0 0.0 1.0
vn -0.913968 0.341272 0.219537
vn -0.692635 0.55765 0.457476
vn -0.904516 0.380565 0.192408
vn -0.156676 0.962801 -0.220152
vn -0.694063 0.563746 -0.447735
vn -0.583376 0.777874 -0.233633
vn -0.156676 0.962801 -0.220152
vn -0.900927 0.388825 -0.192733
vn -0.694063 0.563746 -0.447735
vn -0.999556 0.025634 0.015198
vn -0.895368 0.444074 -0.033391
vn -0.650868 0.7437 -0.152582
vn -0.999556 0.025634 0.015198
vn -0.967631 -0.25061 -0.029763
vn -0.895368 0.444074 -0.033391
vn -0.913968 0.341272 0.219537
vn -0.999556 0.025634 0.015198
vn -0.650868 0.7437 -0.152582
vn -0.913968 0.341272 0.219537
vn -0.999489 -0.03143 0.00585
vn -0.999556 0.025634 0.015198
vn -0.913968 0.341272 0.219537
vn -0.900927 0.388825 -0.192733
vn -0.999489 -0.03143 0.00585
vn -0.998653 0.045874 -0.024254
vn -0.900927 0.388825 -0.192733
vn -0.814779 0.579173 0.026325
vn -0.654456 0.030063 -0.755502
vn -0.999489 -0.03143 0.00585
vn -0.900927 0.388825 -0.192733
vn 0.759461 0.650548 0.002525
vn 0.995439 -0.030476 -0.090399
vn 0.985698 -0.166537 -0.025783
vn 0.759461 0.650548 0.002525
vn 0.724473 0.673602 -0.146284
vn 0.995439 -0.030476 -0.090399
vn 0.782435 0.621066 0.045528
vn 0.985698 -0.166537 -0.025783
vn 0.992119 -0.117083 0.044628
vn 0.782435 0.621066 0.045528
vn 0.759461 0.650548 0.002525
vn 0.985698 -0.166537 -0.025783
vn 0.873529 0.484066 0.051252
vn 0.992119 -0.117083 0.044628
vn 0.951228 -0.304858 0.047184
vn 0.873529 0.484066 0.051252
vn 0.782435 0.621066 0.045528
vn 0.992119 -0.117083 0.044628
vn -0.913968 0.341272 0.219537
vn -0.125852 0.949614 0.287046
vn -0.692635 0.55765 0.457476
vn -0.900927 0.388825 -0.192733
vn -0.966361 0.229216 -0.116649
vn -0.694063 0.563746 -0.447735
vn -0.125852 0.949614 0.287046
vn -0.379746 0.672915 0.634805
vn 0.091847 0.965776 0.242573
vn -0.125852 0.949614 0.287046
vn 0.091847 0.965776 0.242573
vn 0.33052 0.943266 0.031718
vn -0.156676 0.962801 -0.220152
vn -0.125852 0.949614 0.287046
vn 0.33052 0.943266 0.031718
vn -0.223631 0.887398 -0.403131
vn -0.013649 0.996183 -0.086219
vn 0.043708 0.976088 -0.212935
vn -0.223631 0.887398 -0.403131
vn -0.452424 0.889165 -0.068542
vn -0.013649 0.996183 -0.086219
vn -0.1861 0.982229 0.024343
vn 0.33052 0.943266 0.031718
vn 0.449733 0.891258 0.058304
vn -0.1861 0.982229 0.024343
vn -0.156676 0.962801 -0.220152
vn 0.33052 0.943266 0.031718
vn -0.125852 0.949614 0.287046
vn -0.368661 0.908301 0.197683
vn -0.692635 0.55765 0.457476
vn 0.782435 0.621066 0.045528
vn 0.33052 0.943266 0.031718
vn 0.349858 0.932487 0.089817
vn 0.759461 0.650548 0.002525
vn 0.782435 0.621066 0.045528
vn 0.349858 0.932487 0.089817
vn 0.759461 0.650548 0.002525
vn 0.091847 0.965776 0.242573
vn 0.240828 0.948266 -0.206865
vn -0.892411 -0.451156 0.007758
vn -0.967631 -0.25061 -0.029763
vn -0.999556 0.025634 0.015198
vn -0.892411 -0.451156 0.007758
vn -0.8 -0.6 0.0
vn -0.967631 -0.25061 -0.029763
vn -0.906458 -0.421237 0.029894
vn -0.999556 0.025634 0.015198
vn -0.999489 -0.03143 0.00585
vn -0.906458 -0.421237 0.029894
vn -0.892411 -0.451156 0.007758
vn -0.999556 0.025634 0.015198
vn -0.579984 -0.365465 -0.728048
vn -0.999489 -0.03143 0.00585
vn -0.654456 0.030063 -0.755502
vn -0.579984 -0.365465 -0.728048
vn -0.906458 -0.421237 0.029894
vn -0.999489 -0.03143 0.00585
vn 0.42254 0.876333 -0.231301
vn 0.724473 0.673602 -0.146284
vn 0.759461 0.650548 0.002525
vn 0.589995 0.779293 -0.211207
vn 0.686644 0.686644 -0.238833
vn 0.724473 0.673602 -0.146284
vn 0.449733 0.891258 0.058304
vn 0.782435 0.621066 0.045528
vn 0.873529 0.484066 0.051252
vn 0.449733 0.891258 0.058304
vn 0.33052 0.943266 0.031718
vn 0.782435 0.621066 0.045528
vn -0.913968 0.341272 0.219537
vn -0.966361 0.229216 -0.116649
vn -0.900927 0.388825 -0.192733
vn -0.913968 0.341272 0.219537
vn -0.904516 0.380565 0.192408
vn -0.966361 0.229216 -0.116649
vn 0.187841 0.940694 0.282506
vn -0.156676 0.962801 -0.220152
vn 0.014206 0.899904 -0.435856
vn 0.187841 0.940694 0.282506
vn -0.125852 0.949614 0.287046
vn -0.156676 0.962801 -0.220152
vn -0.379746 0.672915 0.634805
vn -0.913968 0.341272 0.219537
vn -0.193039 0.934272 0.299787
vn -0.379746 0.672915 0.634805
vn -0.125852 0.949614 0.287046
vn -0.913968 0.341272 0.219537
vn -0.650868 0.7437 -0.152582
vn -0.452424 0.889165 -0.068542
vn -0.223631 0.887398 -0.403131
vn -0.650868 0.7437 -0.152582
vn -0.895368 0.444074 -0.033391
vn -0.452424 0.889165 -0.068542
vn -0.814779 0.579173 0.026325
vn -0.156676 0.962801 -0.220152
vn -0.1861 0.982229 0.024343
vn -0.814779 0.579173 0.026325
vn -0.900927 0.388825 -0.192733
vn -0.156676 0.962801 -0.220152
vn 0.985698 -0.166537 -0.025783
vn 0.798071 -0.598553 -0.069398
vn 0.820103 -0.572135 -0.009601
vn 0.985698 -0.166537 -0.025783
vn 0.995439 -0.030476 -0.090399
vn 0.798071 -0.598553 -0.069398
vn 0.992119 -0.117083 0.044628
vn 0.820103 -0.572135 -0.009601
vn 0.838503 -0.543126 0.043903
vn 0.992119 -0.117083 0.044628
vn 0.985698 -0.166537 -0.025783
vn 0.820103 -0.572135 -0.009601
vn 0.951228 -0.304858 0.047184
vn 0.838503 -0.543126 0.043903
vn 0.799472 -0.599604 0.036338
vn 0.951228 -0.304858 0.047184
vn 0.992119 -0.117083 0.044628
vn 0.838503 -0.543126 0.043903
vn -0.440854 -0.897579 -0.0
vn 0.153047 -0.988212 0.003748
vn -0.656046 -0.754721 0.0
vn -0.440854 -0.897579 -0.0
vn -0.656046 -0.754721 0.0
vn -0.761771 -0.647331 0.025834
vn -0.536005 -0.83897 0.093956
vn -0.440854 -0.897579 -0.0
vn -0.761771 -0.647331 0.025834
vn -0.699599 -0.701983 0.133344
vn -0.627726 -0.533423 0.566939
vn -0.548489 -0.057045 0.83421
vn 0.13742 -0.990506 0.003561
vn 0.53791 -0.537167 0.649696
vn 0.439732 -0.897412 0.035896
vn -0.119056 -0.989546 0.081392
vn 0.862522 -0.492631 -0.115634
vn 0.707594 -0.706618 -0.001104
vn 0.153047 -0.988212 0.003748
vn 0.409649 -0.912228 0.005204
vn 0.794662 -0.607018 -0.006509
vn 0.153047 -0.988212 0.003748
vn -0.214727 -0.976674 0.0
vn 0.409649 -0.912228 0.005204
vn -0.834918 -0.534311 0.131999
vn -0.754256 0.110905 0.647146
vn -0.995917 0.055174 0.071447
vn -0.953381 0.238591 -0.184766
vn -0.548489 -0.057045 0.83421
vn -0.754256 0.110905 0.647146
vn 0.862522 -0.492631 -0.115634
vn 0.887272 0.428563 -0.170535
vn 0.939842 -0.313281 -0.136209
vn 0.862522 -0.492631 -0.115634
vn 0.663178 -0.747143 -0.044415
vn 0.698163 0.710796 -0.08566
vn 0.972145 0.234378 -0.0
vn 0.857493 0.514496 0.0
vn 0.999593 -0.027371 -0.00801
vn 0.972145 0.234378 -0.0
vn 0.857493 0.514496 -0.0
vn 0.857493 0.514496 0.0
vn 0.707594 -0.706618 -0.001104
vn 0.972145 0.234378 -0.0
vn 0.999593 -0.027371 -0.00801
vn 0.707594 -0.706618 -0.001104
vn 0.673845 -0.018451 -0.738642
vn 0.324769 -0.248081 -0.912678
vn -0.761771 -0.647331 0.025834
vn -0.999061 0.043336 0.0
vn -0.955433 0.295209 0.0
vn -0.761771 -0.647331 0.025834
vn -0.656046 -0.754721 0.0
vn -0.999061 0.043336 0.0
vn -0.955433 0.295209 0.0
vn -0.999061 0.043336 0.0
vn -0.857493 0.514496 0.0
vn -0.955433 0.295209 0.0
vn -0.857493 0.514496 0.0
vn -0.857493 0.514496 0.0

# 13, 42 grouped triangles

usemtl material_12
o 13
g 13

f 3/1/1 2/2/2 1/3/3
f 5/4/4 4/5/5 2/6/6
f 6/7/7 5/8/8 2/9/9
f 1/10/10 2/11/11 7/12/12
f 2/13/13 4/14/14 7/15/15
f 6/16/16 2/17/17 3/18/18
f 10/19/19 9/20/20 8/21/21
f 9/22/22 11/23/23 8/24/24
f 11/25/25 12/26/26 8/27/27
f 15/28/28 14/29/29 13/30/30
f 14/31/31 16/32/32 13/33/33
f 16/34/34 17/35/35 13/36/36
f 20/37/37 19/38/38 18/39/39
f 23/40/40 22/41/41 21/42/42
f 24/43/43 23/44/44 21/45/45
f 24/46/46 25/47/47 23/48/48
f 11/49/49 15/50/50 12/51/51
f 11/52/52 14/53/53 15/54/54
f 16/55/55 10/56/56 17/57/57
f 16/58/58 9/59/59 10/60/60
f 22/61/61 26/62/62 21/63/63
f 22/64/64 27/65/65 26/66/66
f 27/67/67 28/68/68 26/69/69
f 27/70/70 29/71/71 28/72/72
f 29/73/73 30/74/74 28/75/75
f 29/76/76 31/77/77 30/78/78
f 34/79/79 33/80/80 32/81/81
f 34/82/82 35/83/83 33/84/84
f 35/85/85 24/86/86 33/87/87
f 35/88/88 25/89/89 24/90/90
f 38/91/91 37/92/92 36/93/93
f 38/94/94 39/95/95 37/96/96
f 42/97/97 41/98/98 40/99/99
f 42/100/100 43/101/101 41/102/102
f 39/103/103 40/104/104 37/105/105
f 39/106/106 42/107/107 40/108/108
f 46/109/109 45/110/110 44/111/111
f 46/112/112 47/113/113 45/114/114
f 47/115/115 19/116/116 45/117/117
f 47/118/118 18/119/119 19/120/120
f 48/121/121 20/122/122 18/123/123
f 48/124/124 49/125/125 20/126/126
# 14, 16 grouped triangles

usemtl material_13
o 14
g 14

f 50/127/127 5/128/128 6/129/129
f 51/130/130 1/131/131 7/132/132
f 51/133/133 52/134/134 1/135/135
f 53/136/136 19/137/137 12/138/138
f 53/139/139 45/140/140 19/141/141
f 50/142/142 53/143/143 12/144/144
f 50/145/145 54/146/146 53/147/147
f 50/148/148 52/149/149 54/150/150
f 35/151/151 52/152/152 25/153/153
f 35/154/154 54/155/155 52/156/156
f 56/157/157 40/158/158 55/159/159
f 56/160/160 37/161/161 40/162/162
f 58/163/163 55/164/164 57/165/165
f 58/166/166 56/167/167 55/168/168
f 27/169/169 57/170/170 29/171/171
f 27/172/172 58/173/173 57/174/174
# 15, 9 grouped triangles

usemtl material_14
o 15
g 15

f 50/175/175 59/176/176 5/177/177
f 52/178/178 3/179/179 1/180/180
f 59/181/181 13/182/182 17/183/183
f 59/184/184 17/185/185 60/186/186
f 51/187/187 59/188/188 60/189/189
f 8/190/190 49/191/191 10/192/192
f 8/193/193 20/194/194 49/195/195
f 23/196/196 60/197/197 22/198/198
f 23/199/199 51/200/200 60/201/201
# 16, 14 grouped triangles

usemtl material_15
o 16
g 16

f 59/202/202 4/203/203 5/204/204
f 58/205/205 60/206/206 17/207/207
f 56/208/208 58/209/209 17/210/210
f 56/211/211 17/212/212 10/213/213
f 61/214/214 45/215/215 53/216/216
f 61/217/217 44/218/218 45/219/219
f 62/220/220 53/221/221 54/222/222
f 62/223/223 61/224/224 53/225/225
f 34/226/226 54/227/227 35/228/228
f 34/229/229 62/230/230 54/231/231
f 10/232/232 37/233/233 56/234/234
f 10/235/235 36/236/236 37/237/237
f 22/238/238 58/239/239 27/240/240
f 22/241/241 60/242/242 58/243/243
# 17, 16 grouped triangles

usemtl material_16
o 17
g 17

f 50/244/244 3/245/245 52/246/246
f 50/247/247 6/248/248 3/249/249
f 4/250/250 51/251/251 7/252/252
f 4/253/253 59/254/254 51/255/255
f 13/256/256 50/257/257 15/258/258
f 13/259/259 59/260/260 50/261/261
f 12/262/262 20/263/263 8/264/264
f 12/265/265 19/266/266 20/267/267
f 25/268/268 51/269/269 23/270/270
f 25/271/271 52/272/272 51/273/273
f 55/274/274 41/275/275 63/276/276
f 55/277/277 40/278/278 41/279/279
f 57/280/280 63/281/281 64/282/282
f 57/283/283 55/284/284 63/285/285
f 29/286/286 64/287/287 31/288/288
f 29/289/289 57/290/290 64/291/291
# 18, 20 grouped triangles

usemtl material_17
o 18
g 18

f 16/292/292 21/293/293 26/294/294
f 16/295/295 26/296/296 39/297/297
f 9/298/298 16/299/299 39/300/300
f 9/301/301 39/302/302 38/303/303
f 9/304/304 18/305/305 11/306/306
f 9/307/307 48/308/308 18/309/309
f 21/310/310 14/311/311 24/312/312
f 21/313/313 16/314/314 14/315/315
f 9/316/316 36/317/317 10/318/318
f 9/319/319 38/320/320 36/321/321
f 48/322/322 10/323/323 49/324/324
f 48/325/325 9/326/326 10/327/327
f 47/328/328 32/329/329 33/330/330
f 47/331/331 46/332/332 32/333/333
f 18/334/334 47/335/335 33/336/336
f 18/337/337 33/338/338 24/339/339
f 39/340/340 28/341/341 42/342/342
f 39/343/343 26/344/344 28/345/345
f 42/346/346 28/347/347 30/348/348
f 42/349/349 30/350/350 43/351/351
