# 3ds Max Wavefront OBJ Exporter v0.97b - (c)2007 guruware
# File Created: 20.04.2019 14:53:27

mtllib GBC.mtl

#
# object polymsh_detached
#

v  -3.9667 2.7765 -1.7349
v  -0.7856 2.8071 1.7161
v  -0.7973 2.6822 -1.6866
v  -3.9554 2.7136 1.7192
v  -4.6726 1.2914 2.7890
v  -4.6060 1.2833 -2.7653
v  -3.6628 0.3068 1.7843
v  -3.6668 0.3183 -1.8575
v  3.6522 2.7843 -2.7540
v  3.6642 1.3663 -2.7689
v  1.8747 1.3519 -2.8347
v  1.9420 1.2929 2.8442
v  3.7234 2.7935 2.8052
v  3.7353 1.3754 2.7904
v  -4.6180 2.7014 -2.7504
v  -4.6845 2.7095 2.8038
v  -0.4968 0.3323 1.9008
v  -0.4935 0.2922 -1.9288
v  4.4381 1.3576 -1.3213
v  4.4791 1.2766 1.3303
v  4.4261 2.7756 -1.3064
v  4.4709 2.7628 1.2256
# 22 vertices

vn -0.0114 0.9997 -0.0194
vn -0.0054 1.0000 -0.0035
vn 0.0080 0.9997 -0.0229
vn -0.0126 0.9999 0.0068
vn -0.6687 -0.3498 0.6562
vn -0.8624 -0.5061 -0.0074
vn -0.3338 -0.8826 0.3311
vn -0.1703 -0.9222 -0.3471
vn 0.2528 0.0290 -0.9671
vn 0.6798 0.0135 -0.7333
vn 0.0841 -0.7578 -0.6470
vn 0.1472 -0.7675 0.6239
vn 0.0073 0.0051 1.0000
vn 0.0304 -0.0102 0.9995
vn -0.0045 -0.2166 -0.9763
vn -0.0005 0.0105 -0.9999
vn -0.9999 -0.0083 -0.0120
vn -0.0001 -0.0105 0.9999
vn -0.0364 -0.9993 -0.0087
vn -0.0034 -1.0000 0.0017
vn 0.0923 -0.9744 0.2049
vn 0.2029 -0.9554 -0.2145
vn -0.0997 -0.9949 -0.0127
vn -0.1839 -0.9826 -0.0272
vn 0.9445 0.0114 -0.3282
vn 0.9850 0.0087 -0.1724
vn 0.9759 0.0136 0.2177
vn 0.9742 0.0212 0.2247
vn 0.8979 0.0199 0.4398
vn 0.9039 0.0031 0.4277
vn 0.0086 1.0000 0.0036
vn -0.0322 0.9994 0.0133
vn -0.0299 0.9995 -0.0142
vn -0.0062 0.9998 0.0169
vn 0.0498 0.9987 0.0042
vn 0.0323 0.9995 0.0012
# 36 vertex normals

vt 0.9844 0.9844 0.0000
vt -0.0156 -0.0156 0.0000
vt 0.9844 -0.0156 0.0000
vt -0.0156 0.9844 0.0000
vt 0.9121 -0.0146 0.0000
vt 0.9219 0.9746 0.0000
vt 0.0117 0.1553 0.0000
vt 0.0176 0.8018 0.0000
vt 0.9688 -0.0156 0.0000
vt -0.0313 -0.0156 0.0000
vt -0.0313 0.1992 0.0000
vt -0.0313 0.7695 0.0000
vt 0.9688 0.9844 0.0000
vt -0.0313 0.9844 0.0000
vt 0.4492 0.0957 0.0000
vt 0.1445 0.8877 0.0000
vt 0.4336 0.8926 0.0000
vt 0.1602 0.0908 0.0000
vt 0.4844 -0.0098 0.0000
vt 0.0293 0.1348 0.0000
vt 0.4805 0.9814 0.0000
vt 0.0273 0.6152 0.0000
vt 0.4512 0.7041 0.0000
vt 0.0059 0.8291 0.0000
vt 0.0313 -0.0010 0.0000
vt 0.4648 0.3018 0.0000
vt 0.4707 0.9043 0.0000
vt 0.0195 0.2080 0.0000
vt 0.4688 0.0596 0.0000
vt 0.0195 0.7598 0.0000
vt 0.4707 0.3633 0.0000
vt 0.0371 0.8984 0.0000
vt 0.0371 0.3379 0.0000
vt 0.4707 0.9229 0.0000
vt 0.0313 0.3018 0.0000
vt 0.0254 0.6729 0.0000
vt 0.0098 0.0947 0.0000
vt 0.7734 0.5654 0.0000
vt 0.2002 0.5669 0.0000
vt 0.0137 0.9854 0.0000
vt 0.2012 0.9116 0.0000
vt 0.7754 0.9102 0.0000
vt 0.9639 0.9829 0.0000
vt 0.9600 0.0923 0.0000
vt 0.2637 0.0117 0.0000
vt 0.7051 0.0103 0.0000
# 46 texture coords

g polymsh_detached
usemtl VMtl105
s off
f 1/1/1 2/2/2 3/3/3 
f 1/1/1 4/4/4 2/2/2 
usemtl VMtl104
f 5/5/5 6/6/6 7/7/7 
f 7/7/7 6/6/6 8/8/8 
usemtl VMtl103
f 9/9/9 10/10/10 11/11/11 
f 12/12/12 13/13/13 5/10/5 
f 14/14/14 13/13/13 12/12/12 
f 6/14/15 15/13/16 9/9/9 
f 6/14/6 5/10/5 15/13/17 
f 5/10/5 16/9/17 15/13/17 
f 16/9/18 5/10/5 13/13/13 
f 11/15/11 14/16/19 12/17/12 
f 11/15/11 10/18/20 14/16/19 
f 5/19/5 7/20/7 12/21/12 
f 7/20/7 17/22/21 12/21/12 
f 8/23/8 6/24/15 11/25/11 
f 18/26/22 8/23/8 11/25/11 
f 12/27/12 18/28/22 11/29/11 
f 17/30/21 18/28/22 12/27/12 
f 17/31/21 8/32/8 18/33/22 
f 7/34/7 8/32/8 17/31/21 
f 6/14/15 9/9/9 11/11/11 
f 10/18/20 19/35/23 14/16/19 
f 19/35/23 20/36/24 14/16/19 
f 21/13/25 10/10/10 9/9/9 
f 21/13/25 19/14/26 10/10/10 
f 22/9/27 19/14/26 21/13/25 
f 22/9/27 20/10/28 19/14/26 
f 14/14/29 20/10/28 22/9/27 
f 13/13/30 14/14/29 22/9/27 
usemtl VMtl102
f 13/37/31 3/38/3 2/39/2 
f 2/39/2 16/40/32 13/37/31 
f 16/40/32 2/39/2 4/41/4 
f 1/42/1 16/40/32 4/41/4 
f 15/43/33 16/40/32 1/42/1 
f 3/38/3 15/43/33 1/42/1 
f 9/44/34 15/43/33 3/38/3 
f 9/44/34 3/38/3 13/37/31 
f 22/45/35 21/46/36 13/37/31 
f 21/46/36 9/44/34 13/37/31 
# 40 faces

